<svg xmlns="http://www.w3.org/2000/svg" width="12.685" height="7.097" viewBox="0 0 12.685 7.097">
  <g id="Layer_1" data-name="Layer 1" transform="translate(-0.003 -0.005)">
    <g id="Group_5478" data-name="Group 5478" transform="translate(0.003 0.005)">
      <path id="Union_5" data-name="Union 5" d="M6.5,7.1a1.55,1.55,0,0,1-.16-.015V.069c.369,0,.72-.005,1.07,0,.224,0,.448,0,.673,0,.536,0,1.072,0,1.605.042A3.122,3.122,0,0,1,12.679,3.28a4.159,4.159,0,0,1-.4,2.155A3.027,3.027,0,0,1,9.943,7.027a4.5,4.5,0,0,1-.737.066c-.483,0-.969.005-1.453.005ZM8.025,5.721c.531-.034,1.054-.023,1.562-.106A1.5,1.5,0,0,0,10.852,4.4a3.245,3.245,0,0,0,.04-1.447A1.7,1.7,0,0,0,9.421,1.519c-.453-.064-.917-.049-1.4-.071ZM0,7.081C0,6.73,0,6.378.007,6.027c0-.057.079-.117.132-.164q1.249-1.119,2.5-2.236a1.855,1.855,0,0,0,.625-.868,2.057,2.057,0,0,0,.054-.765A.554.554,0,0,0,2.8,1.46c-.347-.042-.695-.021-.878.329a4.85,4.85,0,0,0-.249.761H.191A2.229,2.229,0,0,1,2.282.017,3.017,3.017,0,0,1,3.966.295,1.886,1.886,0,0,1,5.03,1.868a2.411,2.411,0,0,1-.748,2.077c-.574.55-1.181,1.069-1.772,1.6-.049.043-.1.088-.185.169H5.207V7.081ZM5.207,5.715Z" transform="translate(0 0)" fill="#1b1b53"/>
    </g>
  </g>
</svg>
