<svg id="Group_5476" data-name="Group 5476" xmlns="http://www.w3.org/2000/svg" width="17.649" height="7.097" viewBox="0 0 17.649 7.097">
  <path id="Union_4" data-name="Union 4" d="M1.77,7.08A2.516,2.516,0,0,1,.753,6.812,1.551,1.551,0,0,1,.011,5.426c-.023-.219,0-.442-.009-.663,0-.129.036-.2.171-.2q.782,0,1.565,0c.122,0,.171.06.161.184,0,.007,0,.015,0,.023-.044.577.113.854.834.853h.774c.553,0,1.106,0,1.659,0a.649.649,0,0,0,.545-1.026.527.527,0,0,0-.356-.245c-.65-.033-1.3-.031-1.953-.038-.373,0-.373,0-.373-.39,0-.244,0-.488,0-.732,0-.3.013-.314.291-.314.492,0,.985,0,1.477,0,.066,0,.131,0,.2,0,.492-.031.656-.224.628-.738A.515.515,0,0,0,5.2,1.574a1.179,1.179,0,0,0-.322-.041c-.746,0-1.492-.005-2.238,0-.491,0-.672.188-.675.7,0,.188-.059.26-.239.257-.471-.008-.942-.006-1.412,0-.154,0-.224-.047-.22-.222A3.4,3.4,0,0,1,.269.968,1.339,1.339,0,0,1,1.379.157,22.174,22.174,0,0,1,5.844.069a2.913,2.913,0,0,1,.762.168,1.133,1.133,0,0,1,.8.829,3.987,3.987,0,0,1,.035,1.7.828.828,0,0,1-.574.63c-.091.037-.176.088-.317.16h0l.437.162a.891.891,0,0,1,.585.672,3.479,3.479,0,0,1-.021,1.7,1.185,1.185,0,0,1-.921.9,2.542,2.542,0,0,1-.641.1C5.2,7.09,4.413,7.1,3.627,7.1,3.008,7.1,2.389,7.093,1.77,7.08Zm7.611-.02c-.319,0-.331-.013-.331-.346V3.577h0V.395c0-.289.022-.312.3-.312,1.846,0,3.694-.013,5.541.007a4.358,4.358,0,0,1,1.646.242,1.682,1.682,0,0,1,1.036,1.28,1.173,1.173,0,0,1,.044.247c.006,1.121.08,2.247-.007,3.359a1.732,1.732,0,0,1-1.69,1.757,7.2,7.2,0,0,1-1.017.082q-1.329.005-2.658,0ZM11,2.113c.011.946,0,1.891,0,2.837,0,.275.028.307.283.307,1.035,0,2.07,0,3.105-.005A3.51,3.51,0,0,0,14.98,5.2a.658.658,0,0,0,.56-.414,2.615,2.615,0,0,0,.135-.686,8.678,8.678,0,0,0,0-1.029,3.239,3.239,0,0,0-.116-.714.568.568,0,0,0-.443-.425,4.5,4.5,0,0,0-.686-.087c-.338-.009-.675-.008-1.013-.006l-.442,0h0c-.565,0-1.13.008-1.694,0h-.018C11.078,1.833,11,1.889,11,2.113Z" transform="translate(0 0)" fill="#1b1b53"/>
</svg>
