<svg id="american-express-svgrepo-com" xmlns="http://www.w3.org/2000/svg" width="24.841" height="17.131" viewBox="0 0 24.841 17.131">
  <path id="Path_16375" data-name="Path 16375" d="M24.841,95.114a1.468,1.468,0,0,1-1.468,1.468H1.468A1.468,1.468,0,0,1,0,95.114V80.919a1.468,1.468,0,0,1,1.468-1.468h21.9a1.468,1.468,0,0,1,1.468,1.468V95.114Z" transform="translate(0 -79.451)" fill="#306fc5"/>
  <path id="Path_16376" data-name="Path 16376" d="M1.044,95.114V80.919a1.468,1.468,0,0,1,1.468-1.468H1.468A1.468,1.468,0,0,0,0,80.919V95.114a1.468,1.468,0,0,0,1.468,1.468H2.512A1.469,1.469,0,0,1,1.044,95.114Z" transform="translate(0 -79.451)" fill="#202121" opacity="0.15"/>
  <g id="Group_4964" data-name="Group 4964" transform="translate(1.783 5.034)">
    <path id="Path_16377" data-name="Path 16377" d="M74.59,202.223h.742l-.371-.945Z" transform="translate(-72.754 -200.401)" fill="#fff"/>
    <path id="Path_16378" data-name="Path 16378" d="M155.946,286.107v.439h1.248v.472h-1.248v.506h1.383l.641-.709-.607-.709Z" transform="translate(-150.163 -281.114)" fill="#fff"/>
    <path id="Path_16379" data-name="Path 16379" d="M348.958,201.278l-.4.945h.776Z" transform="translate(-333.425 -200.401)" fill="#fff"/>
    <path id="Path_16380" data-name="Path 16380" d="M213.145,283.164v-1.923l-.877.945Z" transform="translate(-203.752 -276.484)" fill="#fff"/>
    <path id="Path_16381" data-name="Path 16381" d="M243.247,286.411a.341.341,0,0,0-.371-.3h-.708v.607h.742C243.112,286.714,243.247,286.613,243.247,286.411Z" transform="translate(-232.201 -281.114)" fill="#fff"/>
    <path id="Path_16382" data-name="Path 16382" d="M294.566,287.311a.263.263,0,0,0,.1-.236.188.188,0,0,0-.1-.236.655.655,0,0,0-.27-.034h-.675v.54h.675A.657.657,0,0,0,294.566,287.311Z" transform="translate(-281.158 -281.778)" fill="#fff"/>
    <path id="Path_16383" data-name="Path 16383" d="M55.013,183.2v.4l-.2-.4H53.226v.4l-.2-.4H50.864a2.054,2.054,0,0,0-.945.2v-.2H48.4v.2a.973.973,0,0,0-.641-.2H42.329l-.371.843-.371-.843H39.866v.4l-.169-.4H38.213l-.675,1.586-.776,1.721-.014.034H38.5l.012-.034.2-.506h.439l.2.54h1.957v-.4l.169.4h.978l.169-.4v.4h4.689v-.877h.068c.067,0,.067,0,.067.1v.742h2.429v-.2a2.018,2.018,0,0,0,.911.2h1.012l.2-.54h.472l.2.54h1.957V186l.3.506h1.586V183.2H55.013Zm-11.436,2.834h-.54v-1.856l-.034.077h0l-.785,1.779h-.5l-.81-1.856v1.856H39.765l-.236-.506H38.382l-.236.506h-.593l1-2.362h.843l.945,2.26v-2.26h.894l.016.034h0l.426.926.306.694.011-.035.675-1.619h.911v2.362Zm2.328-1.856H44.589v.439h1.282v.472H44.589v.472H45.9v.506H44.016v-2.4H45.9v.506Zm2.406.87,0,0a.388.388,0,0,1,.033.04.649.649,0,0,1,.119.4v.01s0,0,0,.005,0,0,0,0c0,.019,0,.038,0,.058v.472h-.506v-.27a.8.8,0,0,0-.1-.472.307.307,0,0,0-.1-.068.674.674,0,0,0-.305-.033h-.607v.843h-.573V183.67h1.282a1.293,1.293,0,0,1,.675.1.57.57,0,0,1,.269.525.67.67,0,0,1-.4.622A.452.452,0,0,1,48.311,185.046Zm1.136.986h-.574V183.67h.574Zm6.579,0h-.742l-1.08-1.788v1.484l0,0v.309H53.057l-.2-.506H51.674l-.2.54H50.83a1.014,1.014,0,0,1-1.113-1.181,1.383,1.383,0,0,1,.3-.945,1.063,1.063,0,0,1,.843-.27h.54v.506h-.54a.622.622,0,0,0-.439.135.793.793,0,0,0-.169.54.734.734,0,0,0,.169.574.538.538,0,0,0,.4.135h.236l.776-1.855h.843l.945,2.26V183.7h.843l.978,1.653V183.7h.574v2.328h0Z" transform="translate(-36.748 -183.198)" fill="#fff"/>
    <path id="Path_16384" data-name="Path 16384" d="M245.926,203.842a.18.18,0,0,0,.026-.036.365.365,0,0,0,.047-.254.193.193,0,0,0-.005-.031s0-.005,0-.008h0a.189.189,0,0,0-.1-.115.661.661,0,0,0-.27-.034h-.675v.54h.675a.657.657,0,0,0,.27-.034.127.127,0,0,0,.028-.02h0Z" transform="translate(-234.844 -202.386)" fill="#fff"/>
    <path id="Path_16385" data-name="Path 16385" d="M150.259,266.813a1.293,1.293,0,0,0-.169-.641v-1.518h0v-.1h-1.625a.96.96,0,0,0-.466.2v-.2h-1.552a1.072,1.072,0,0,0-.675.2v-.2h-2.766v.2a1.3,1.3,0,0,0-.742-.2h-1.822v.2a1.282,1.282,0,0,0-.776-.2h-2.024l-.472.506-.439-.506h-3.036v3.408h2.969l.488-.488.423.488h1.889v-.776h.169a2.05,2.05,0,0,0,.776-.1v.911h1.518v-.877h.067c.1,0,.1,0,.1.1v.776h4.588a1.322,1.322,0,0,0,.776-.2v.2h1.451a1.515,1.515,0,0,0,.81-.169,1.133,1.133,0,0,0,.535-.91c0-.012,0-.023,0-.035l0,0C150.258,266.856,150.259,266.835,150.259,266.813Zm-10.627-.2h-.675v.877h-1.109l-.645-.742,0,0-.032-.036-.742.776h-2.159v-2.362h2.193l.6.656.126.137.017-.018.709-.776H139.7a.876.876,0,0,1,.883.439.954.954,0,0,1,.028.236C140.611,266.475,140.138,266.61,139.633,266.61Zm3.374-.034a.766.766,0,0,1,.1.439v.472h-.573v-.3a.753.753,0,0,0-.1-.473c-.067-.1-.2-.1-.4-.1h-.607v.877h-.573v-2.4h1.282a1.361,1.361,0,0,1,.675.1.6.6,0,0,1,.3.54.672.672,0,0,1-.4.641A.575.575,0,0,1,143.006,266.576Zm2.328-.979h-1.316v.439H145.3v.472h-1.282v.472h1.316v.506h-1.889v-2.4h1.889Zm1.417,1.889h-1.08v-.506h1.08a.285.285,0,0,0,.236-.068.245.245,0,0,0,0-.337.286.286,0,0,0-.2-.068c-.54-.034-1.181,0-1.181-.742,0-.337.2-.709.81-.709h1.113v.573h-1.046a.5.5,0,0,0-.236.034c-.067.034-.067.1-.067.169,0,.1.067.135.135.168a.427.427,0,0,0,.2.034h.3a.859.859,0,0,1,.641.2.7.7,0,0,1,.169.506C147.628,267.251,147.324,267.487,146.751,267.487Zm2.9-.236a.983.983,0,0,1-.709.236h-1.079v-.506h1.079a.285.285,0,0,0,.236-.068.244.244,0,0,0,0-.337.285.285,0,0,0-.2-.068c-.54-.034-1.181,0-1.181-.742a.69.69,0,0,1,.636-.7,1.262,1.262,0,0,1,.174-.012h1.113v.573h-1.046a.5.5,0,0,0-.236.034.257.257,0,0,0-.068.169c0,.1.034.135.135.168a.427.427,0,0,0,.2.034h.3a1.053,1.053,0,0,1,.361.054.726.726,0,0,1,.472.533.757.757,0,0,1,.01.121A.686.686,0,0,1,149.652,267.251Z" transform="translate(-128.991 -260.605)" fill="#fff"/>
  </g>
</svg>
