<svg xmlns="http://www.w3.org/2000/svg" xmlns:xlink="http://www.w3.org/1999/xlink" width="53" height="53" viewBox="0 0 53 53">
  <defs>
    <filter id="Ellipse_123" x="0" y="0" width="53" height="53" filterUnits="userSpaceOnUse">
      <feOffset dy="3" input="SourceAlpha"/>
      <feGaussianBlur stdDeviation="3" result="blur"/>
      <feFlood flood-opacity="0.161"/>
      <feComposite operator="in" in2="blur"/>
      <feComposite in="SourceGraphic"/>
    </filter>
  </defs>
  <g id="arrow-left" transform="translate(8.999 6)">
    <g transform="matrix(1, 0, 0, 1, -9, -6)" filter="url(#Ellipse_123)">
      <circle id="Ellipse_123-2" data-name="Ellipse 123" cx="17.5" cy="17.5" r="17.5" transform="translate(9 6)" fill="#fff"/>
    </g>
    <g id="Group_3390" data-name="Group 3390" transform="translate(7.635 7.961)">
      <rect id="Rectangle_17" data-name="Rectangle 17" width="18" height="19" transform="translate(0.365 0.039)" fill="none"/>
      <path id="Icon_ion-ios-arrow-forward" data-name="Icon ion-ios-arrow-forward" d="M13.581,13.247l5.125-5.334a1.033,1.033,0,0,0,0-1.424.948.948,0,0,0-1.371,0l-5.806,6.044a1.037,1.037,0,0,0-.028,1.39l5.83,6.086a.946.946,0,0,0,1.371,0,1.033,1.033,0,0,0,0-1.424Z" transform="translate(-5.781 -3.979)" fill="#2f3090"/>
    </g>
  </g>
</svg>
