<svg xmlns="http://www.w3.org/2000/svg" width="21.259" height="16.068" viewBox="0 0 21.259 16.068">
  <path id="email-135" d="M19.541,128H1.215A1.227,1.227,0,0,0,0,129.23v13.109a1.227,1.227,0,0,0,1.216,1.23H19.541a1.227,1.227,0,0,0,1.216-1.23V129.23A1.227,1.227,0,0,0,19.541,128Zm0,1.23v.366a.607.607,0,0,0-.093.043l-9.07,5.237-9.07-5.237a.608.608,0,0,0-.093-.043v-.366ZM1.215,142.339V130.99l8.767,5.061a.634.634,0,0,0,.792,0l8.767-5.061v11.349Z" transform="translate(0.251 -127.75)" fill="#fff" stroke="#fff" stroke-width="0.5"/>
</svg>
