<svg xmlns="http://www.w3.org/2000/svg" width="21.096" height="9.96" viewBox="0 0 21.096 9.96">
  <path id="eye-46" d="M97.522,342.78a.8.8,0,0,0-.148-1.039.726.726,0,0,0-1.039.148c-.037.037-4.158,4.9-9.058,4.9-4.752,0-9.058-4.9-9.1-4.937a.737.737,0,0,0-1.114.965,16.557,16.557,0,0,0,2.376,2.227l-1.893,1.967a.718.718,0,0,0,.037,1.039.486.486,0,0,0,.446.223.733.733,0,0,0,.52-.223l2.042-2.116a14.466,14.466,0,0,0,3.378,1.745l-.78,2.636a.742.742,0,0,0,.52.928h.223a.715.715,0,0,0,.705-.557l.78-2.636a9.374,9.374,0,0,0,3.712,0l.78,2.6a.747.747,0,0,0,.705.557.278.278,0,0,0,.186-.037.742.742,0,0,0,.52-.928l-.78-2.6a14.469,14.469,0,0,0,3.378-1.745l2,2.079a.718.718,0,0,0,1.039,0A.752.752,0,0,0,97,346.938l-1.893-1.967a14.578,14.578,0,0,0,2.413-2.19Z" transform="translate(-76.742 -341.433)" fill="#fff" stroke="#fff" stroke-width="0.3"/>
</svg>
