<svg xmlns="http://www.w3.org/2000/svg" width="25.175" height="25.187" viewBox="0 0 25.175 25.187">
  <g id="Group_5503" data-name="Group 5503" transform="translate(-1402.798 -727.818)">
    <g id="google-95" transform="translate(1402.798 727.818)">
      <path id="Path_346" data-name="Path 346" d="M9.961,295.8a7.328,7.328,0,0,1,.386-2.338l-4.334-3.241a12.449,12.449,0,0,0,0,11.154l4.332-3.247a7.31,7.31,0,0,1-.382-2.328" transform="translate(-4.693 -283.205)" fill="#fbbc05"/>
      <path id="Path_347" data-name="Path 347" d="M68.733,16.544A7.548,7.548,0,0,1,73.474,18.2l3.747-3.663a13.027,13.027,0,0,0-20.048,3.866l4.336,3.242a7.575,7.575,0,0,1,7.224-5.1" transform="translate(-55.853 -11.392)" fill="#ea4335"/>
      <path id="Path_348" data-name="Path 348" d="M68.733,610.032a7.578,7.578,0,0,1-7.226-5.1l-4.334,3.241a12.869,12.869,0,0,0,11.56,7.014,12.423,12.423,0,0,0,8.391-3.139l-4.115-3.115a8.1,8.1,0,0,1-4.277,1.1" transform="translate(-55.853 -589.997)" fill="#34a853"/>
      <path id="Path_349" data-name="Path 349" d="M528.946,423.282a10.267,10.267,0,0,0-.293-2.289h-12v4.866h6.908a5.667,5.667,0,0,1-2.63,3.764l4.114,3.115a12.4,12.4,0,0,0,3.9-9.455" transform="translate(-503.772 -410.688)" fill="#4285f4"/>
    </g>
  </g>
</svg>
