<svg xmlns="http://www.w3.org/2000/svg" width="15.011" height="17.482" viewBox="0 0 15.011 17.482">
  <path id="lock-67" d="M200.826,138.581a1.87,1.87,0,0,0-1.839-1.905h-.659v-2.5a5.008,5.008,0,0,0-10.015-.025c0,.011,0,2.524,0,2.524h-.582a1.936,1.936,0,0,0-1.917,1.905v6.253a1.878,1.878,0,0,0,1.917,1.836h11.255a1.811,1.811,0,0,0,1.839-1.836v-6.253Zm-8.739,1.8a1.26,1.26,0,0,1,1.261-1.251,1.246,1.246,0,0,1,.6,2.333v.794a.63.63,0,0,1-1.259,0v-.794a1.41,1.41,0,0,1-.6-1.082Zm-1.275-6.2a2.525,2.525,0,0,1,2.509-2.487,2.465,2.465,0,0,1,2.506,2.439s0,.049,0,.049v2.5h-5.017v-2.5Zm0,0" transform="translate(-185.815 -129.188)" fill="#1b1b53"/>
</svg>
