<svg id="mastercard-12" xmlns="http://www.w3.org/2000/svg" width="28.548" height="17.129" viewBox="0 0 28.548 17.129">
  <path id="Path_16389" data-name="Path 16389" d="M40.565,232.565m-8.565,0A8.565,8.565,0,1,0,40.565,224,8.565,8.565,0,0,0,32,232.565Z" transform="translate(-32 -224)" fill="#e80b26"/>
  <path id="Path_16390" data-name="Path 16390" d="M424.565,232.565m-8.565,0A8.565,8.565,0,1,0,424.565,224,8.565,8.565,0,0,0,416,232.565Z" transform="translate(-404.581 -224)" fill="#f59d31"/>
  <path id="Path_16391" data-name="Path 16391" d="M418.855,310.111a8.564,8.564,0,0,0,0-12.767,8.564,8.564,0,0,0,0,12.767Z" transform="translate(-404.58 -295.163)" fill="#fc6020"/>
</svg>
