<svg xmlns="http://www.w3.org/2000/svg" width="23.526" height="20.654" viewBox="0 0 23.526 20.654">
  <path id="Path_16818" data-name="Path 16818" d="M318.694,14.16h10.119c1.278,0,1.647.376,1.647,1.671q0,8.592,0,17.184c0,1.478-.292,1.788-1.775,1.79q-10.076.013-20.155.007c-1.249,0-1.594-.358-1.594-1.632q-.007-8.714,0-17.43c0-1.2.374-1.585,1.555-1.585,3.4-.007,6.8,0,10.2,0Zm-3.153,10.317c0,.959-.009,1.917,0,2.874.011.935.3,1.113,1.08.668q2.569-1.458,5.128-2.94c.712-.413.726-.767.026-1.174q-2.589-1.511-5.2-2.979c-.7-.4-1.018-.209-1.031.594C315.528,22.5,315.541,23.49,315.541,24.477Zm12.441-7.966a10.725,10.725,0,0,0-2.133.029c-.84.178-.255.948-.387,1.434-.026.1.266.4.424.407.695.046,1.392.02,2.1.02V16.508Zm-18.741.029v1.805h2.432V16.539Zm13.494,1.825V16.577h-2.447v1.788Zm-5.622,0V16.555h-2.432V18.36Zm8.375,14.055h2.472v-1.77h-2.472Zm-5.2-1.768v1.766h2.456V30.647Zm-3.158.013H314.67v1.755h2.461Zm-5.442,1.755V30.652h-2.445v1.763Z" transform="translate(-306.938 -14.16)" fill="#fff"/>
</svg>
