<svg xmlns="http://www.w3.org/2000/svg" width="111.146" height="92.502" viewBox="0 0 111.146 92.502">
  <g id="notickets" transform="translate(0.02 0.01)">
    <g id="Group_5297" data-name="Group 5297" transform="translate(-0.02 -0.01)">
      <path id="Path_16462" data-name="Path 16462" d="M17.317,73.318a3.83,3.83,0,0,0-2.5,1.079,1.371,1.371,0,0,1-2.247-.081C11.55,73.31,10.521,72.31,9.5,71.3c-.786-.773-.746-1.31-.107-2.215A5.664,5.664,0,0,0,10.385,67a1.98,1.98,0,0,0-2.713-2.378A5.966,5.966,0,0,0,5.847,65.64c-.851.657-1.388.689-2.165-.065-1.029-1-2.058-2-3.074-3.011-.848-.846-.833-1.469.008-2.326Q16.031,44.551,31.444,28.863,43.718,16.376,56,3.9C57.1,2.776,58.2,1.643,59.3.525a1.312,1.312,0,0,1,2.1-.018q1.6,1.57,3.193,3.146a1.3,1.3,0,0,1,.089,2.064,4.072,4.072,0,0,0-1.108,2.5,1.926,1.926,0,0,0,2.452,2.113,6.778,6.778,0,0,0,2.173-1.1c.841-.605,1.393-.658,2.129.061,1.053,1.03,2.11,2.059,3.156,3.1a1.349,1.349,0,0,1,.1,2.2,3.961,3.961,0,0,0-1.061,2.452,1.967,1.967,0,0,0,2.423,2.121A4.392,4.392,0,0,0,77.2,18.036a1.308,1.308,0,0,1,2.071.028q1.677,1.619,3.323,3.274a1.259,1.259,0,0,1,.05,1.93,4.349,4.349,0,0,0-1.145,2.422,1.971,1.971,0,0,0,2.207,2.3A4.117,4.117,0,0,0,86.081,26.9a1.371,1.371,0,0,1,2.249.076q1.512,1.487,3.033,2.964a1.409,1.409,0,0,1-.006,2.294Q82.774,40.953,74.2,49.685q-5.732,5.831-11.466,11.664-8.578,8.728-17.153,17.46Q39.1,85.4,32.616,91.977A1.3,1.3,0,0,1,30.561,92c-1.053-1.03-2.11-2.059-3.155-3.1-.806-.8-.817-1.335-.091-2.2A4,4,0,0,0,28.35,84.49,1.99,1.99,0,0,0,25.7,82.2a6.165,6.165,0,0,0-1.944,1.047c-.87.655-1.382.7-2.165-.06C20.505,82.128,19.43,81.06,18.352,80a1.3,1.3,0,0,1-.06-2.019,3.93,3.93,0,0,0,1.116-2.551,1.9,1.9,0,0,0-2.093-2.108ZM31.43,89.5c.317-.291.484-.43.634-.584Q42.493,78.308,52.92,67.7,59.462,61.047,66,54.392q8.791-8.947,17.578-17.9,2.463-2.507,4.937-5c.3-.3.314-.506-.006-.786a10.569,10.569,0,0,1-.946-.938.668.668,0,0,0-.945-.141,9.284,9.284,0,0,1-2.08.788,4.488,4.488,0,0,1-5.169-2.431,5.415,5.415,0,0,1,.149-4.58c.471-1.071.477-1.068-.356-1.878a1.723,1.723,0,0,0-2.076-.375c-.092.042-.184.084-.278.12a5.009,5.009,0,0,1-5.165-.526A4.487,4.487,0,0,1,70.4,15.154c.728-1.443.3-2.177-.743-2.967a.469.469,0,0,1-.084-.086c-.231-.3-.472-.277-.789-.1a8.676,8.676,0,0,1-1.37.633,4.609,4.609,0,0,1-6.157-2.789,5.8,5.8,0,0,1,.6-4.559.824.824,0,0,0,.006-.722c-.332-.427-.767-.772-1.14-1.168-.262-.278-.472-.238-.7.032-.1.123-.228.228-.341.345Q51.592,12.009,43.5,20.242,34.309,29.6,25.11,38.951,16.849,47.357,8.6,55.764c-1.7,1.729-3.386,3.47-5.1,5.182-.369.367-.348.6.029.916s.678.7,1.052,1a.8.8,0,0,0,.569.07,2.067,2.067,0,0,0,.477-.254,5.38,5.38,0,0,1,4.732-.335,4.524,4.524,0,0,1,2.22,6.236,2.049,2.049,0,0,0,.739,2.926.8.8,0,0,0,.995.147,11.2,11.2,0,0,1,2.739-.872,4.333,4.333,0,0,1,4.627,2.87,5.4,5.4,0,0,1-.49,4.61.757.757,0,0,0,.17,1.129,9.239,9.239,0,0,1,.953.93c.288.322.523.324.933.146a10.509,10.509,0,0,1,2.616-.861,4.354,4.354,0,0,1,4.978,3.641,5.972,5.972,0,0,1-.713,3.915.886.886,0,0,0-.057.736c.4.553.88,1.045,1.364,1.6Z" transform="translate(0.02 0.01)" fill="#131332"/>
      <path id="Path_16463" data-name="Path 16463" d="M247.22,161.287c.2-.248.293-.391.412-.513,1.359-1.383,2.716-2.766,4.086-4.14a2.47,2.47,0,0,1,.681-.489q12.638-5.863,25.282-11.711,15.855-7.343,31.709-14.689c1.813-.84,3.625-1.686,5.448-2.5.451-.2.49-.4.324-.869-.385-1.094-.874-1.7-2.229-1.449a4.739,4.739,0,0,1-2.517-.44,4.251,4.251,0,0,1-2.2-5.96,9.993,9.993,0,0,1,1.671-2.19c.3-.325.395-.542.178-.927a11.294,11.294,0,0,1-.615-1.315c-.15-.374-.372-.45-.757-.367a5.509,5.509,0,0,1-3.271-.291,4.382,4.382,0,0,1-2.234-6.377,9.961,9.961,0,0,1,1.551-1.912c.256-.275.377-.469.186-.823a12.259,12.259,0,0,1-.631-1.375c-.146-.375-.367-.421-.747-.4a10.388,10.388,0,0,1-2.457-.042,4.662,4.662,0,0,1-3.612-5.055,5.27,5.27,0,0,1,1.935-3.329.82.82,0,0,0,.233-1.215c-.705-1.416-.688-1.433-2.118-.814-1.741.754-3.483,1.508-5.211,2.291a.685.685,0,0,1-.9-.136c-.48-.484-1-.927-1.623-1.5.686-.32,1.183-.561,1.687-.786q3.543-1.575,7.087-3.14c1.336-.592,1.8-.414,2.414.929.548,1.192,1.1,2.381,1.65,3.574.474,1.035.311,1.542-.679,2.09a4.006,4.006,0,0,0-1.705,1.666,1.915,1.915,0,0,0,1.576,2.964,6.5,6.5,0,0,0,2.244-.3c.921-.264,1.477-.11,1.885.755q.971,2.055,1.922,4.117a1.289,1.289,0,0,1-.652,1.912,3.915,3.915,0,0,0-1.88,1.9,1.867,1.867,0,0,0,1.545,2.763,6.187,6.187,0,0,0,2.252-.238c1.1-.311,1.584-.167,2.072.883q.883,1.9,1.763,3.789a1.377,1.377,0,0,1-.71,2.135,3.938,3.938,0,0,0-1.746,1.791,1.83,1.83,0,0,0,1.212,2.719,8.2,8.2,0,0,0,2.2-.008,2.517,2.517,0,0,0,.626-.22,1.266,1.266,0,0,1,1.7.709q.98,2.082,1.936,4.177a1.285,1.285,0,0,1-.715,1.885l-37.041,17.159q-12.172,5.639-24.343,11.282-4.149,1.922-8.3,3.842c-.139.065-.293.1-.578.194Z" transform="translate(-207.224 -74.182)" fill="#131332"/>
      <path id="Path_16464" data-name="Path 16464" d="M200.652,282.365a1.258,1.258,0,0,1-.966-2.208q1.827-1.856,3.653-3.716,9.194-9.357,18.387-18.715,2.909-2.96,5.829-5.911a1.26,1.26,0,0,1,1.915-.155,1.277,1.277,0,0,1-.138,1.883q-5.409,5.516-10.829,11.018-8.047,8.192-16.087,16.386a14.834,14.834,0,0,1-1.079,1.061,2.912,2.912,0,0,1-.686.356Z" transform="translate(-167.006 -210.634)" fill="#131332"/>
      <path id="Path_16465" data-name="Path 16465" d="M275.3,309.49c.775.039,1.15.285,1.369.783a1.216,1.216,0,0,1-.346,1.428c-1.166,1.2-2.344,2.393-3.517,3.586q-6.6,6.712-13.2,13.426a1.429,1.429,0,0,1-1.666.516,1.257,1.257,0,0,1-.257-2.122c1.6-1.648,3.224-3.284,4.835-4.924q5.918-6.023,11.845-12.039a5.242,5.242,0,0,1,.935-.654Z" transform="translate(-215.613 -259.422)" fill="#131332"/>
      <path id="Path_16466" data-name="Path 16466" d="M244.2,270.8c-.539.547-.94.992-1.386,1.385a.739.739,0,0,1-.557.07c-.927-.2-1.849-.421-2.773-.631-.194-.044-.39-.073-.618-.115a1.311,1.311,0,0,0,.354,1.451c.485.422.925.9,1.433,1.4l-1.524,1.3c-.573-.615-1.241-1.367-1.948-2.082-1.008-1.019-2.037-2.017-3.07-3.012-.273-.262-.327-.463-.027-.746s.569-.623.908-1l2.441,2.346a2.727,2.727,0,0,0,.032-.493c-.171-1.055-.377-2.106-.511-3.166a1.263,1.263,0,0,1,.252-.841,16.089,16.089,0,0,1,1.242-1.288c.128,1.2.256,2.245.348,3.3s.078,1.043,1.121,1.25C241.28,270.2,242.641,270.481,244.2,270.8Z" transform="translate(-196.042 -222.447)" fill="#131332"/>
      <path id="Path_16467" data-name="Path 16467" d="M274.2,239.135l2.153-2.25.935,1.035-2.048,2.131a.7.7,0,0,0,.089.188c1.47,1.453.925,1.435,2.334.039.33-.327.671-.644.979-.99.226-.256.4-.256.652-.032a.829.829,0,0,1,.055,1.375c-.9.9-1.8,1.8-2.669,2.728-.311.328-.513.4-.874.042-1.6-1.6-3.226-3.171-4.84-4.755-.113-.112-.21-.241-.359-.416,1.241-1.168,2.472-2.328,3.771-3.549.2.225.5.545.836.919-.578.6-1.119,1.218-1.728,1.767-.453.409-.511.715,0,1.092a8.749,8.749,0,0,1,.717.676Z" transform="translate(-226.83 -196.714)" fill="#131332"/>
      <path id="Path_16468" data-name="Path 16468" d="M212.274,310.438l1.039.67c-.634,2-3.235,3.695-5.059,3.32a4.065,4.065,0,0,1-2.711-6.164,12.532,12.532,0,0,1,2.067-2.163c.286-.282.605-.247.757.163.126.341.743.67.034,1.073a4.159,4.159,0,0,0-.932.759,2.447,2.447,0,0,0,.015,3.7,2.4,2.4,0,0,0,3.6.044,14.712,14.712,0,0,0,1.191-1.4Z" transform="translate(-171.761 -256.427)" fill="#131332"/>
      <path id="Path_16469" data-name="Path 16469" d="M139.383,366.666l4.848-4.556c.167.157.49.466.867.823-.413.434-.764.844-1.16,1.205-.367.333-.375.566,0,.922,1.257,1.194,2.469,2.435,3.726,3.627.34.322.314.5.011.822-.916.967-.9.98-1.836.061-1.077-1.06-2.173-2.1-3.227-3.187-.367-.377-.61-.348-.917.031-.189.235-.45.413-.628.654-.367.5-.683.427-1.053,0a2.91,2.91,0,0,0-.634-.4Z" transform="translate(-116.829 -303.529)" fill="#131332"/>
      <path id="Path_16470" data-name="Path 16470" d="M302.661,203.594l-.971-1.16c.5-.519,1.04-1.1,1.6-1.669.8-.823,1.631-1.624,2.417-2.464.34-.362.579-.413.912,0a3.04,3.04,0,0,0,.686.468l-1.833,1.935a6.212,6.212,0,0,1,.875.6c1.136,1.09,2.236,2.22,3.381,3.3.377.354.364.581,0,.916a11.255,11.255,0,0,0-.887,1.076c-.747-.8-1.338-1.462-1.957-2.093-.734-.749-1.506-1.464-2.239-2.215-.291-.3-.5-.328-.781.008-.346.417-.733.8-1.2,1.31Z" transform="translate(-252.882 -165.975)" fill="#131332"/>
      <path id="Path_16471" data-name="Path 16471" d="M148.527,291.77c.029.6.081,1.073.068,1.547a1.017,1.017,0,0,0,.48.964c.409.28.781.613,1.272,1.006-.565.23-1.016.438-1.483.594a1.105,1.105,0,0,0-.791.817c-.131.456-.335.893-.552,1.456-.382-.453-.71-.8-.987-1.181a1.05,1.05,0,0,0-1.016-.5c-.476.036-.956.008-1.608.008a6.682,6.682,0,0,0,1.082-1.894,6.527,6.527,0,0,0-.379-2.095,6.134,6.134,0,0,0,2.016.351A6.886,6.886,0,0,0,148.527,291.77Z" transform="translate(-120.626 -244.568)" fill="#131332"/>
      <path id="Path_16472" data-name="Path 16472" d="M193.078,247.5a2.735,2.735,0,0,0,1.828,3.362,7.156,7.156,0,0,0-2.056.971,6.809,6.809,0,0,0-.911,2.03c-.767-1.449-1.83-2.155-3.449-1.713l0-.193a5.95,5.95,0,0,0,.988-1.8,6.2,6.2,0,0,0-.43-2.069,6.281,6.281,0,0,0,2.08.409,5.557,5.557,0,0,0,1.734-1.014l.212.013Z" transform="translate(-157.994 -207.451)" fill="#131332"/>
      <path id="Path_16473" data-name="Path 16473" d="M235.958,208.476a2.941,2.941,0,0,0-3.47-1.681c-.007-.061-.013-.123-.018-.184a12.884,12.884,0,0,1,.712-1.144,1.206,1.206,0,0,0,.2-1.291,14.988,14.988,0,0,1-.408-1.535,2.8,2.8,0,0,0,3.839-.59l.134.139c.029.446.091.895.081,1.341a1.224,1.224,0,0,0,.6,1.166c.383.249.722.568,1.252.993A3.06,3.06,0,0,0,235.958,208.476Z" transform="translate(-194.86 -169.362)" fill="#131332"/>
      <path id="Path_16474" data-name="Path 16474" d="M179.229,344.11c1.21,1.186,2.391,2.341,3.57,3.5.547.537,1.077,1.09,1.642,1.606.319.291.307.5,0,.781s-.579.61-.917.972c-1.857-1.943-3.645-3.815-5.481-5.733l1.187-1.124Z" transform="translate(-149.235 -288.441)" fill="#131332"/>
      <path id="Path_16475" data-name="Path 16475" d="M469.628,229.614a2.118,2.118,0,0,1-1.988-1.967,1.648,1.648,0,0,1,1.61-1.627,2.231,2.231,0,0,1,2,1.993,1.621,1.621,0,0,1-1.619,1.6Z" transform="translate(-391.986 -189.455)" fill="#131332"/>
      <path id="Path_16476" data-name="Path 16476" d="M345.386,107.531a2.093,2.093,0,0,1-1.967-1.917,1.61,1.61,0,0,1,1.618-1.665,2.182,2.182,0,0,1,1.978,1.935,1.6,1.6,0,0,1-1.631,1.645Z" transform="translate(-287.86 -87.132)" fill="#131332"/>
      <path id="Path_16477" data-name="Path 16477" d="M371.76,130.375a1.631,1.631,0,0,1-1.681,1.61A2.181,2.181,0,0,1,368.15,130a1.643,1.643,0,0,1,1.624-1.608,2.155,2.155,0,0,1,1.985,1.987Z" transform="translate(-308.59 -107.618)" fill="#131332"/>
      <path id="Path_16478" data-name="Path 16478" d="M396.538,154.858a1.583,1.583,0,0,1-1.593,1.616,2.229,2.229,0,0,1-2.008-1.919,1.629,1.629,0,0,1,1.629-1.666,2.071,2.071,0,0,1,1.97,1.97Z" transform="translate(-329.367 -128.155)" fill="#131332"/>
      <path id="Path_16479" data-name="Path 16479" d="M442.85,203.318a1.579,1.579,0,0,1,1.621-1.6,2.185,2.185,0,0,1,1.978,1.949,1.623,1.623,0,0,1-1.614,1.626,2.075,2.075,0,0,1-1.985-1.975Z" transform="translate(-371.206 -169.086)" fill="#131332"/>
      <path id="Path_16480" data-name="Path 16480" d="M320.175,79.61a2.144,2.144,0,0,1,1.956,1.954,1.6,1.6,0,0,1-1.611,1.616,2.1,2.1,0,0,1-1.98-1.985A1.582,1.582,0,0,1,320.175,79.61Z" transform="translate(-267.005 -66.729)" fill="#131332"/>
      <path id="Path_16481" data-name="Path 16481" d="M421.522,179.287a1.566,1.566,0,0,1-1.616,1.6,2.139,2.139,0,0,1-1.956-1.959,1.6,1.6,0,0,1,1.6-1.623A2.078,2.078,0,0,1,421.522,179.287Z" transform="translate(-350.334 -148.616)" fill="#131332"/>
    </g>
  </g>
</svg>
