<svg xmlns="http://www.w3.org/2000/svg" width="17.719" height="23.564" viewBox="0 0 17.719 23.564">
  <path id="Path_16821" data-name="Path 16821" d="M322.341,176.851c-1.448,0-2.894.006-4.342,0-.817,0-1.046-.228-1.192-1.051-.705-4.016-1.409-8.03-2.138-12.041a1.689,1.689,0,0,0-.47-.808,2.559,2.559,0,0,1-.462-3.146,2.158,2.158,0,0,0,.254-.84,2.986,2.986,0,0,1,2.192-2.694,2.593,2.593,0,0,0,.758-.505c.309-.241.563-.645.9-.733a5.8,5.8,0,0,0,2.1-1.216,2.757,2.757,0,0,1,3.726.481,3.056,3.056,0,0,0,.838.535c.324.178.78.239.973.5a2.945,2.945,0,0,0,1.859,1.119,2.107,2.107,0,0,1,1.508,1.612,1,1,0,0,0,.709.8,2.387,2.387,0,0,1,.975,3.807,2.517,2.517,0,0,0-.518,1.091c-.731,4.011-1.431,8.027-2.138,12.041-.148.842-.391,1.048-1.27,1.049-1.423,0-2.847,0-4.271,0ZM317.5,162.186a2.164,2.164,0,0,1,.954-2.293,2.4,2.4,0,0,0,.724-.752,2.115,2.115,0,0,1,2.179-1.064,2.036,2.036,0,0,1,1.661,1.5c.123.541-.273,1.023-.741.846-.223-.084-.344-.4-.552-.565-.253-.2-.572-.5-.817-.46a.966.966,0,0,0-.621.681.852.852,0,0,1-.924.9c-.46.032-.614.359-.584.793.032.464.374.391.67.389q4.478-.025,8.955-.058a1.964,1.964,0,0,0,.619-.082.9.9,0,0,0,.662-1.085.937.937,0,0,0-1.034-.838c-1.188.032-1.231,0-1.089-1.149a1.129,1.129,0,0,0-.872-1.255.815.815,0,0,0-1.089.756c-.045.238-.514.61-.687.561a1.069,1.069,0,0,1-.634-.72,1.933,1.933,0,0,1,.284-1.049c.32-.63.1-1.139-.578-1.059-.705.084-.984-.23-1.285-.774a1.327,1.327,0,0,0-2.278-.1c.071.1.146.215.223.325.286.413.492.862-.021,1.22-.462.322-.793.054-1.107-.348a.885.885,0,0,0-1.573.38.926.926,0,0,1-1.012.733A1.5,1.5,0,0,0,315.4,159.3a2.014,2.014,0,0,1-.333,1.055,1.108,1.108,0,0,0,.773,1.824c.526.047,1.059.009,1.669.009Zm5.561,13.246c.094-4,.185-7.928.277-11.837h-2c.1,3.977.189,7.9.282,11.837h1.435Zm-3.152-.024c-.34-3.951-.677-7.858-1.014-11.77h-1.932c.443,3.578.872,7.086,1.319,10.591C318.452,175.534,318.47,175.533,319.913,175.407Zm4.864.019h1.482c.492-3.958.982-7.892,1.476-11.856H325.8C325.455,167.536,325.118,171.447,324.776,175.426Z" transform="translate(-313.394 -153.289)" fill="#fff"/>
</svg>
