<svg id="visa-svgrepo-com" xmlns="http://www.w3.org/2000/svg" width="29.243" height="17.131" viewBox="0 0 29.243 17.131">
  <path id="Path_16392" data-name="Path 16392" d="M1.5,0H27.743a1.439,1.439,0,0,1,1.5,1.371v14.39a1.439,1.439,0,0,1-1.5,1.371H1.5A1.439,1.439,0,0,1,0,15.761V1.371A1.439,1.439,0,0,1,1.5,0Z" transform="translate(0)" fill="#0e4595"/>
  <path id="Path_16393" data-name="Path 16393" d="M122.762,156.719l1.237-7.6h1.979l-1.238,7.6Zm9.128-7.432a4.911,4.911,0,0,0-1.774-.319c-1.956,0-3.333,1.03-3.345,2.507-.011,1.091.983,1.7,1.734,2.064.77.372,1.029.61,1.026.942,0,.509-.615.742-1.184.742a3.994,3.994,0,0,1-1.863-.4l-.255-.121-.278,1.7a6.022,6.022,0,0,0,2.2.405c2.08,0,3.431-1.018,3.446-2.6.007-.864-.52-1.522-1.662-2.064-.692-.351-1.115-.586-1.111-.942,0-.316.359-.653,1.133-.653a3.513,3.513,0,0,1,1.481.291l.177.088.268-1.646m5.093-.164h-1.529a.979.979,0,0,0-1.036.63l-2.939,6.961h2.078s.34-.936.417-1.141l2.535,0c.059.266.241,1.138.241,1.138h1.836l-1.6-7.591Zm-2.426,4.9c.164-.438.789-2.123.789-2.123-.012.02.162-.44.262-.725l.134.655s.379,1.813.458,2.193Zm-13.475-4.9-1.938,5.18-.206-1.053a5.847,5.847,0,0,0-2.741-3.186l1.772,6.643,2.094,0,3.116-7.581h-2.1" transform="translate(-111.678 -144.323)" fill="#fff"/>
  <path id="Path_16394" data-name="Path 16394" d="M63.563,152.956H60.224l-.026.158a6.853,6.853,0,0,1,5.029,3.974L64.5,153.6a.867.867,0,0,0-.938-.641" transform="translate(-57.963 -147.903)" fill="#f2ae14"/>
</svg>
